<mxfile host="app.diagrams.net" modified="2022-07-14T21:00:14.034Z" agent="5.0 (X11)" etag="PdDoWkOIVe80XukTRiUM" version="20.1.1" type="github">
  <diagram id="C5RBs43oDa-KdzZeNtuy" name="Page-1">
    <mxGraphModel dx="782" dy="696" grid="1" gridSize="10" guides="1" tooltips="1" connect="1" arrows="1" fold="1" page="1" pageScale="1" pageWidth="827" pageHeight="1169" math="0" shadow="0">
      <root>
        <mxCell id="WIyWlLk6GJQsqaUBKTNV-0" />
        <mxCell id="WIyWlLk6GJQsqaUBKTNV-1" parent="WIyWlLk6GJQsqaUBKTNV-0" />
        <mxCell id="_qSmLomELiyoDALrIAwL-22" value="" style="rounded=0;whiteSpace=wrap;html=1;" parent="WIyWlLk6GJQsqaUBKTNV-1" vertex="1">
          <mxGeometry x="74" y="440" width="680" height="530" as="geometry" />
        </mxCell>
        <mxCell id="_qSmLomELiyoDALrIAwL-10" style="edgeStyle=orthogonalEdgeStyle;rounded=0;orthogonalLoop=1;jettySize=auto;html=1;entryX=0.5;entryY=0;entryDx=0;entryDy=0;" parent="WIyWlLk6GJQsqaUBKTNV-1" source="_qSmLomELiyoDALrIAwL-3" target="_qSmLomELiyoDALrIAwL-6" edge="1">
          <mxGeometry relative="1" as="geometry" />
        </mxCell>
        <mxCell id="_qSmLomELiyoDALrIAwL-3" value="Dataset pre-processing and cleaning " style="rounded=1;whiteSpace=wrap;html=1;fillColor=#fff2cc;strokeColor=#d6b656;" parent="WIyWlLk6GJQsqaUBKTNV-1" vertex="1">
          <mxGeometry x="555" y="560" width="130" height="70" as="geometry" />
        </mxCell>
        <mxCell id="_qSmLomELiyoDALrIAwL-5" style="edgeStyle=orthogonalEdgeStyle;rounded=0;orthogonalLoop=1;jettySize=auto;html=1;entryX=0.5;entryY=0;entryDx=0;entryDy=0;" parent="WIyWlLk6GJQsqaUBKTNV-1" source="_qSmLomELiyoDALrIAwL-4" target="_qSmLomELiyoDALrIAwL-3" edge="1">
          <mxGeometry relative="1" as="geometry" />
        </mxCell>
        <mxCell id="g6bQtMEA0Wf18aIE_LI_-16" style="edgeStyle=orthogonalEdgeStyle;rounded=0;orthogonalLoop=1;jettySize=auto;html=1;exitX=-0.005;exitY=0.84;exitDx=0;exitDy=0;exitPerimeter=0;" edge="1" parent="WIyWlLk6GJQsqaUBKTNV-1" source="_qSmLomELiyoDALrIAwL-6" target="_qSmLomELiyoDALrIAwL-8">
          <mxGeometry relative="1" as="geometry" />
        </mxCell>
        <mxCell id="_qSmLomELiyoDALrIAwL-6" value="" style="swimlane;startSize=0;fillColor=#dae8fc;strokeColor=#6c8ebf;" parent="WIyWlLk6GJQsqaUBKTNV-1" vertex="1">
          <mxGeometry x="520" y="660" width="200" height="250" as="geometry" />
        </mxCell>
        <mxCell id="_qSmLomELiyoDALrIAwL-7" value="Recommendation System" style="text;html=1;align=center;verticalAlign=middle;resizable=0;points=[];autosize=1;strokeColor=none;fillColor=none;" parent="_qSmLomELiyoDALrIAwL-6" vertex="1">
          <mxGeometry x="10" y="5" width="160" height="30" as="geometry" />
        </mxCell>
        <mxCell id="_qSmLomELiyoDALrIAwL-9" value="Machine learning models" style="rounded=1;whiteSpace=wrap;html=1;fillColor=#f8cecc;strokeColor=#b85450;" parent="_qSmLomELiyoDALrIAwL-6" vertex="1">
          <mxGeometry x="20" y="70" width="160" height="50" as="geometry" />
        </mxCell>
        <mxCell id="_qSmLomELiyoDALrIAwL-20" value="Similarity and Matching Module" style="rounded=1;whiteSpace=wrap;html=1;fillColor=#f8cecc;strokeColor=#b85450;" parent="_qSmLomELiyoDALrIAwL-6" vertex="1">
          <mxGeometry x="20" y="160" width="160" height="50" as="geometry" />
        </mxCell>
        <mxCell id="_qSmLomELiyoDALrIAwL-12" style="edgeStyle=orthogonalEdgeStyle;rounded=0;orthogonalLoop=1;jettySize=auto;html=1;exitX=1;exitY=0.5;exitDx=0;exitDy=0;entryX=1;entryY=0.5;entryDx=0;entryDy=0;" parent="WIyWlLk6GJQsqaUBKTNV-1" source="_qSmLomELiyoDALrIAwL-8" target="_qSmLomELiyoDALrIAwL-8" edge="1">
          <mxGeometry relative="1" as="geometry">
            <Array as="points" />
          </mxGeometry>
        </mxCell>
        <mxCell id="g6bQtMEA0Wf18aIE_LI_-17" style="edgeStyle=orthogonalEdgeStyle;rounded=0;orthogonalLoop=1;jettySize=auto;html=1;entryX=1;entryY=0.75;entryDx=0;entryDy=0;" edge="1" parent="WIyWlLk6GJQsqaUBKTNV-1" source="_qSmLomELiyoDALrIAwL-8" target="g6bQtMEA0Wf18aIE_LI_-8">
          <mxGeometry relative="1" as="geometry" />
        </mxCell>
        <mxCell id="g6bQtMEA0Wf18aIE_LI_-22" style="edgeStyle=orthogonalEdgeStyle;rounded=0;orthogonalLoop=1;jettySize=auto;html=1;fontSize=19;" edge="1" parent="WIyWlLk6GJQsqaUBKTNV-1" source="_qSmLomELiyoDALrIAwL-8" target="g6bQtMEA0Wf18aIE_LI_-20">
          <mxGeometry relative="1" as="geometry" />
        </mxCell>
        <mxCell id="_qSmLomELiyoDALrIAwL-8" value="Recommendations" style="rounded=0;whiteSpace=wrap;html=1;fillColor=#fff2cc;strokeColor=#d6b656;" parent="WIyWlLk6GJQsqaUBKTNV-1" vertex="1">
          <mxGeometry x="360" y="840" width="126" height="60" as="geometry" />
        </mxCell>
        <mxCell id="_qSmLomELiyoDALrIAwL-4" value="Dataset" style="rounded=0;whiteSpace=wrap;html=1;fillColor=#dae8fc;strokeColor=#6c8ebf;" parent="WIyWlLk6GJQsqaUBKTNV-1" vertex="1">
          <mxGeometry x="560" y="480" width="120" height="60" as="geometry" />
        </mxCell>
        <mxCell id="g6bQtMEA0Wf18aIE_LI_-6" value="" style="group" vertex="1" connectable="0" parent="WIyWlLk6GJQsqaUBKTNV-1">
          <mxGeometry x="130" y="510" width="190" height="160" as="geometry" />
        </mxCell>
        <mxCell id="g6bQtMEA0Wf18aIE_LI_-1" value="" style="rounded=0;whiteSpace=wrap;html=1;" vertex="1" parent="g6bQtMEA0Wf18aIE_LI_-6">
          <mxGeometry width="190" height="160" as="geometry" />
        </mxCell>
        <mxCell id="g6bQtMEA0Wf18aIE_LI_-2" value="User Input" style="swimlane;fontStyle=0;childLayout=stackLayout;horizontal=1;startSize=30;horizontalStack=0;resizeParent=1;resizeParentMax=0;resizeLast=0;collapsible=1;marginBottom=0;" vertex="1" parent="g6bQtMEA0Wf18aIE_LI_-6">
          <mxGeometry x="25" y="20" width="140" height="120" as="geometry" />
        </mxCell>
        <mxCell id="g6bQtMEA0Wf18aIE_LI_-3" value="Questions" style="text;strokeColor=none;fillColor=none;align=left;verticalAlign=middle;spacingLeft=4;spacingRight=4;overflow=hidden;points=[[0,0.5],[1,0.5]];portConstraint=eastwest;rotatable=0;" vertex="1" parent="g6bQtMEA0Wf18aIE_LI_-2">
          <mxGeometry y="30" width="140" height="30" as="geometry" />
        </mxCell>
        <mxCell id="g6bQtMEA0Wf18aIE_LI_-4" value="Preferences" style="text;strokeColor=none;fillColor=none;align=left;verticalAlign=middle;spacingLeft=4;spacingRight=4;overflow=hidden;points=[[0,0.5],[1,0.5]];portConstraint=eastwest;rotatable=0;" vertex="1" parent="g6bQtMEA0Wf18aIE_LI_-2">
          <mxGeometry y="60" width="140" height="30" as="geometry" />
        </mxCell>
        <mxCell id="g6bQtMEA0Wf18aIE_LI_-5" value="Item 3" style="text;strokeColor=none;fillColor=none;align=left;verticalAlign=middle;spacingLeft=4;spacingRight=4;overflow=hidden;points=[[0,0.5],[1,0.5]];portConstraint=eastwest;rotatable=0;" vertex="1" parent="g6bQtMEA0Wf18aIE_LI_-2">
          <mxGeometry y="90" width="140" height="30" as="geometry" />
        </mxCell>
        <mxCell id="g6bQtMEA0Wf18aIE_LI_-7" value="" style="group" vertex="1" connectable="0" parent="WIyWlLk6GJQsqaUBKTNV-1">
          <mxGeometry x="130" y="750" width="190" height="160" as="geometry" />
        </mxCell>
        <mxCell id="g6bQtMEA0Wf18aIE_LI_-8" value="" style="rounded=0;whiteSpace=wrap;html=1;" vertex="1" parent="g6bQtMEA0Wf18aIE_LI_-7">
          <mxGeometry width="190" height="160" as="geometry" />
        </mxCell>
        <mxCell id="g6bQtMEA0Wf18aIE_LI_-9" value="Output" style="swimlane;fontStyle=0;childLayout=stackLayout;horizontal=1;startSize=30;horizontalStack=0;resizeParent=1;resizeParentMax=0;resizeLast=0;collapsible=1;marginBottom=0;" vertex="1" parent="g6bQtMEA0Wf18aIE_LI_-7">
          <mxGeometry x="25" y="20" width="140" height="120" as="geometry" />
        </mxCell>
        <mxCell id="g6bQtMEA0Wf18aIE_LI_-10" value="Match Probability" style="text;strokeColor=none;fillColor=none;align=left;verticalAlign=middle;spacingLeft=4;spacingRight=4;overflow=hidden;points=[[0,0.5],[1,0.5]];portConstraint=eastwest;rotatable=0;" vertex="1" parent="g6bQtMEA0Wf18aIE_LI_-9">
          <mxGeometry y="30" width="140" height="30" as="geometry" />
        </mxCell>
        <mxCell id="g6bQtMEA0Wf18aIE_LI_-11" value="List of roommates" style="text;strokeColor=none;fillColor=none;align=left;verticalAlign=middle;spacingLeft=4;spacingRight=4;overflow=hidden;points=[[0,0.5],[1,0.5]];portConstraint=eastwest;rotatable=0;" vertex="1" parent="g6bQtMEA0Wf18aIE_LI_-9">
          <mxGeometry y="60" width="140" height="30" as="geometry" />
        </mxCell>
        <mxCell id="g6bQtMEA0Wf18aIE_LI_-12" value="Expected preference" style="text;strokeColor=none;fillColor=none;align=left;verticalAlign=middle;spacingLeft=4;spacingRight=4;overflow=hidden;points=[[0,0.5],[1,0.5]];portConstraint=eastwest;rotatable=0;" vertex="1" parent="g6bQtMEA0Wf18aIE_LI_-9">
          <mxGeometry y="90" width="140" height="30" as="geometry" />
        </mxCell>
        <mxCell id="g6bQtMEA0Wf18aIE_LI_-18" style="edgeStyle=orthogonalEdgeStyle;rounded=0;orthogonalLoop=1;jettySize=auto;html=1;entryX=-0.01;entryY=0.112;entryDx=0;entryDy=0;entryPerimeter=0;" edge="1" parent="WIyWlLk6GJQsqaUBKTNV-1" source="g6bQtMEA0Wf18aIE_LI_-1" target="_qSmLomELiyoDALrIAwL-6">
          <mxGeometry relative="1" as="geometry" />
        </mxCell>
        <mxCell id="g6bQtMEA0Wf18aIE_LI_-19" value="Accomodation Management System" style="text;html=1;strokeColor=none;fillColor=none;align=center;verticalAlign=middle;whiteSpace=wrap;rounded=0;strokeWidth=1;fontSize=19;" vertex="1" parent="WIyWlLk6GJQsqaUBKTNV-1">
          <mxGeometry x="94" y="460" width="320" height="30" as="geometry" />
        </mxCell>
        <mxCell id="g6bQtMEA0Wf18aIE_LI_-20" value="DB" style="shape=cylinder3;whiteSpace=wrap;html=1;boundedLbl=1;backgroundOutline=1;size=15;fontSize=19;strokeWidth=1;" vertex="1" parent="WIyWlLk6GJQsqaUBKTNV-1">
          <mxGeometry x="393" y="730" width="60" height="80" as="geometry" />
        </mxCell>
      </root>
    </mxGraphModel>
  </diagram>
</mxfile>
